<svg
  class="app-svg"
  aria-label="derfex logotype"
  role="img"
  viewBox="0 0 162 100"
  xmlns="http://www.w3.org/2000/svg"
>
  <path
    class="app-z-path"
    d="M 5,3 a 110,62 0 0,1 102,42 l -17,11 a 110,62 0 0,0 52.5,19 a 62,100 0 0,0 .5,-13 l 18.25,8 a 81,131 0 0,1 -4.25,27 a 110,62 0 0,1 -102,-42 l 17,-11 a 110,62 0 0,0 -52.5,-19 a 62,100 0 0,0 -.5,13 l -18.25,-8 a 81,131 0 0,1 4.25,-27 z"
  />
  <path
    class="app-v-path"
    d="M 5,97 a 81,131 0 0,1 -4.75,-59 l 19,8.25 a 62,100 0 0,0 3.75,28.75 l 17,-11 a 110,62 0 0,0 13.5,15.25 a 110,62 0 0,1 -48.5,17.75 z"
  />
  <path
    class="app-v-path"
    d="M 157,3 a 81,131 0 0,1 4.75,59 l -19,-8.25 a 62,100 0 0,0 -3.75,-28.75 l -17,11 a 110,62 0 0,0 -13.5,-15.25 a 110,62 0 0,1 48.5,-17.75 z"
  />
</svg>
