<svg
  class="app-svg"
  aria-label="Gmail logotype"
  role="img"
  viewBox="0 0 134 100"
  xmlns="http://www.w3.org/2000/svg"
>
  <g clip-path="url(#app-gmail-logotype__a)">
    <path
      d="M9.09091 100H30.303V48.4848L0 25.7576V90.9091C0 95.9394 4.07576 100 9.09091 100Z"
      fill="#4285f4"
    />
    <path
      d="M103.03 100H124.242C129.273 100 133.333 95.9242 133.333 90.9091V25.7576L103.03 48.4848"
      fill="#34a853"
    />
    <path
      d="M103.03 9.09091V48.4848L133.333 25.7576V13.6364C133.333 2.39394 120.5 -4.01515 111.515 2.72727"
      fill="#fbbc04"
    />
    <path
      d="M30.303 48.4848V9.09091L66.6667 36.3636L103.03 9.09091V48.4848L66.6667 75.7576"
      fill="#ea4335"
    />
    <path
      d="M0 13.6364V25.7576L30.303 48.4848V9.09091L21.8182 2.72727C12.8182 -4.01515 0 2.39394 0 13.6364"
      fill="#c5221f"
    />
  </g>
  <defs>
    <clipPath id="app-gmail-logotype__a">
      <rect
        fill="#fff"
        height="100"
        width="133.333"
      />
    </clipPath>
  </defs>
</svg>
